<?xml version="1.0" encoding="UTF-8" standalone="no"?>
<!-- Created with Inkscape (http://www.inkscape.org/) -->

<svg
   version="1.1"
   id="svg430"
   width="840"
   height="859"
   viewBox="0 0 840 859"
   sodipodi:docname="EvidenceStream.svg"
   xml:space="preserve"
   inkscape:version="1.2.2 (b0a8486541, 2022-12-01)"
   inkscape:export-filename="EvidenceStream.png"
   inkscape:export-xdpi="96"
   inkscape:export-ydpi="96"
   xmlns:inkscape="http://www.inkscape.org/namespaces/inkscape"
   xmlns:sodipodi="http://sodipodi.sourceforge.net/DTD/sodipodi-0.dtd"
   xmlns="http://www.w3.org/2000/svg"
   xmlns:svg="http://www.w3.org/2000/svg"><defs
     id="defs434" /><sodipodi:namedview
     id="namedview432"
     pagecolor="#ffffff"
     bordercolor="#000000"
     borderopacity="0.25"
     inkscape:showpageshadow="2"
     inkscape:pageopacity="0.0"
     inkscape:pagecheckerboard="0"
     inkscape:deskcolor="#d1d1d1"
     showgrid="false"
     inkscape:zoom="1.0058207"
     inkscape:cx="402.65625"
     inkscape:cy="429.99711"
     inkscape:window-width="1844"
     inkscape:window-height="1043"
     inkscape:window-x="1996"
     inkscape:window-y="0"
     inkscape:window-maximized="1"
     inkscape:current-layer="layer1" /><g
     inkscape:groupmode="layer"
     id="layer1"
     inkscape:label="Hex"
     style="display:inline"><path
       sodipodi:type="star"
       style="fill:#ffb4ff;fill-opacity:1;stroke:#000000;stroke-width:5.53701"
       id="path1305"
       inkscape:flatsided="true"
       sodipodi:sides="6"
       sodipodi:cx="113.68883"
       sodipodi:cy="127.60836"
       sodipodi:r1="394.37921"
       sodipodi:r2="341.54242"
       sodipodi:arg1="1.0308357"
       sodipodi:arg2="1.5544345"
       inkscape:rounded="0"
       inkscape:randomized="0"
       d="M 316.44006,465.87882 -77.886367,472.3313 -280.6376,134.06085 -89.062401,-210.6621 305.26402,-217.11458 508.01525,121.15587 Z"
       transform="rotate(0.7,-25996.865,25527.996)" /></g><g
     inkscape:groupmode="layer"
     inkscape:label="Image"
     id="g436"><path
       style="fill:#000000;stroke-width:0.75"
       id="path2112"
       d="" /><path
       style="fill:#3f7cff;fill-opacity:1;stroke:#0000c2;stroke-width:6.20449;stroke-opacity:1"
       d="m 247.52015,641.50969 c -4.21669,-11.53176 -2.92779,-21.20442 4.16372,-31.24696 6.46122,-9.14995 15.03988,-16.55518 29.25458,-25.25301 19.95879,-12.21256 26.60631,-15.11329 103.16444,-45.01695 44.83693,-17.51334 60.40478,-25.83235 69.68618,-37.23826 7.24534,-8.9038 7.60562,-16.8698 1.19429,-26.40652 C 440.92349,455.43425 402.12785,437.1338 299.19564,402.86077 213.62512,374.3686 181.69017,361.90805 160.29466,348.66361 c -24.52929,-15.18434 -32.50088,-31.25347 -24.41258,-49.21087 11.07759,-24.59417 61.43593,-46.30863 145.61056,-62.78714 22.70013,-4.44392 23.42188,-4.50403 53.1291,-4.4244 l 30.11634,0.0808 -14.39947,5.02258 c -23.05479,8.04156 -40.32887,15.82666 -53.27304,24.00911 -24.06714,15.21367 -32.69321,31.41668 -26.04055,48.91404 3.63315,9.55567 12.90065,16.36065 34.9221,25.64272 24.1688,10.18717 53.70079,18.63085 172.49716,49.3197 61.14906,15.79673 89.91243,23.78062 118.67155,32.93981 72.55513,23.10733 113.7263,44.10799 129.18592,65.89537 4.40872,6.21326 8.33123,16.64655 8.34419,22.19434 0.0331,14.14991 -11.63485,26.56874 -36.3976,38.73995 -4.82749,2.37277 -23.87353,9.79233 -42.32453,16.48787 -47.36542,17.18808 -60.27509,23.28294 -72.06419,34.02264 -9.07244,8.26485 -11.49428,20.21856 -6.34877,31.33626 3.23884,6.99801 6.47919,10.5737 15.13617,16.70261 l 6.45494,4.56993 -174.57725,0.0144 -174.57728,0.0145 -2.42728,-6.63808 z"
       id="path2185" /><g
       id="g9920"
       transform="matrix(33.845817,0,0,24.039604,88.898695,172.695)"><g
         id="g9866">
	<path
   style="fill:#030104"
   d="M 19.883,9.416 V 9.048 C 18.584,8.382 17.592,7.327 17.134,6.049 l -0.019,0.008 v -0.02 h -1.29 v 0.01 L 15.812,6.042 C 15.006,8.288 12.644,9.471 9.93,9.471 7.217,9.471 4.855,8.289 4.049,6.047 L 4.024,6.057 V 6.037 H 2.74 V 6.088 C 2.272,7.348 1.288,8.392 0,9.049 V 9.416 C 0.232,9.308 0.449,9.176 0.663,9.042 v 1.735 H 0.009 v 0.707 H 2.74 v 2.361 h 1.284 v -2.361 h 11.801 v 2.361 h 1.29 v -2.361 h 2.768 V 10.779 H 19.23 V 9.045 c 0.211,0.13 0.424,0.261 0.653,0.371 z M 1.845,10.779 H 0.841 V 8.944 C 1.213,8.696 1.542,8.402 1.845,8.089 Z m 0.895,0 H 2.022 V 7.896 C 2.295,7.592 2.543,7.27 2.74,6.92 Z m 2.07,0 H 4.024 V 6.852 C 4.236,7.25 4.509,7.595 4.81,7.911 Z m 1.428,0 H 4.989 V 8.104 c 0.367,0.347 0.789,0.632 1.249,0.87 z m 1.429,0 H 6.418 V 9.071 C 6.807,9.258 7.23,9.396 7.667,9.508 Z m 1.429,0 H 7.846 V 9.557 c 0.404,0.094 0.818,0.164 1.25,0.2 z m 1.429,0 H 9.275 V 9.765 c 0.217,0.017 0.433,0.033 0.655,0.033 0.201,0 0.398,-0.017 0.595,-0.027 0,0 0,1.008 0,1.008 z m 1.428,0 h -1.25 V 9.76 c 0.431,-0.033 0.846,-0.097 1.25,-0.188 z m 1.428,0 H 12.132 V 9.528 C 12.57,9.418 12.99,9.28 13.381,9.099 Z m 1.43,0 H 13.559 V 9.008 C 14.02,8.779 14.442,8.501 14.811,8.167 Z m 1.014,0 H 14.988 V 7.978 C 15.312,7.652 15.599,7.29 15.825,6.871 Z m 2.044,0 H 17.115 V 6.853 c 0.201,0.377 0.466,0.721 0.754,1.046 z m 1.186,0 H 18.047 V 8.091 c 0.305,0.312 0.635,0.604 1.008,0.852 z"
   id="path9864" />
</g><g
         id="g9868">
</g><g
         id="g9870">
</g><g
         id="g9872">
</g><g
         id="g9874">
</g><g
         id="g9876">
</g><g
         id="g9878">
</g><g
         id="g9880">
</g><g
         id="g9882">
</g><g
         id="g9884">
</g><g
         id="g9886">
</g><g
         id="g9888">
</g><g
         id="g9890">
</g><g
         id="g9892">
</g><g
         id="g9894">
</g><g
         id="g9896">
</g></g></g></svg>
